<mxfile host="Electron" modified="2024-09-24T08:52:39.454Z" agent="Mozilla/5.0 (Windows NT 10.0; Win64; x64) AppleWebKit/537.36 (KHTML, like Gecko) draw.io/22.0.3 Chrome/114.0.5735.289 Electron/25.8.4 Safari/537.36" etag="PpGRdZc2uXl6zLoKA-X0" version="22.0.3" type="device">
  <diagram name="Page-1" id="-qoU-4EIT0c3KqDeZ-9C">
    <mxGraphModel dx="619" dy="329" grid="1" gridSize="10" guides="1" tooltips="1" connect="1" arrows="1" fold="1" page="1" pageScale="1" pageWidth="600" pageHeight="200" math="0" shadow="0">
      <root>
        <mxCell id="0" />
        <mxCell id="1" parent="0" />
        <mxCell id="XvheGI2hN2237C690OXO-27" style="edgeStyle=orthogonalEdgeStyle;rounded=0;orthogonalLoop=1;jettySize=auto;html=1;exitX=0.5;exitY=1;exitDx=0;exitDy=0;entryX=0.5;entryY=0;entryDx=0;entryDy=0;startArrow=classic;startFill=1;" edge="1" parent="1" source="XvheGI2hN2237C690OXO-1" target="XvheGI2hN2237C690OXO-14">
          <mxGeometry relative="1" as="geometry" />
        </mxCell>
        <mxCell id="XvheGI2hN2237C690OXO-1" value="A" style="whiteSpace=wrap;html=1;aspect=fixed;fillOpacity=60;strokeOpacity=100;" vertex="1" parent="1">
          <mxGeometry x="138" y="213" width="25" height="25" as="geometry" />
        </mxCell>
        <mxCell id="XvheGI2hN2237C690OXO-28" style="edgeStyle=orthogonalEdgeStyle;rounded=0;orthogonalLoop=1;jettySize=auto;html=1;exitX=0.5;exitY=1;exitDx=0;exitDy=0;entryX=0.5;entryY=0;entryDx=0;entryDy=0;startArrow=classic;startFill=1;" edge="1" parent="1" source="XvheGI2hN2237C690OXO-2" target="XvheGI2hN2237C690OXO-15">
          <mxGeometry relative="1" as="geometry" />
        </mxCell>
        <mxCell id="XvheGI2hN2237C690OXO-2" value="B" style="whiteSpace=wrap;html=1;aspect=fixed;fillColor=#B9E0A5;fillOpacity=60;strokeOpacity=100;" vertex="1" parent="1">
          <mxGeometry x="163" y="213" width="25" height="25" as="geometry" />
        </mxCell>
        <mxCell id="XvheGI2hN2237C690OXO-29" style="edgeStyle=orthogonalEdgeStyle;rounded=0;orthogonalLoop=1;jettySize=auto;html=1;exitX=0.5;exitY=1;exitDx=0;exitDy=0;entryX=0.5;entryY=0;entryDx=0;entryDy=0;startArrow=classic;startFill=1;" edge="1" parent="1" source="XvheGI2hN2237C690OXO-3" target="XvheGI2hN2237C690OXO-16">
          <mxGeometry relative="1" as="geometry" />
        </mxCell>
        <mxCell id="XvheGI2hN2237C690OXO-3" value="C" style="whiteSpace=wrap;html=1;aspect=fixed;fillOpacity=60;strokeOpacity=100;" vertex="1" parent="1">
          <mxGeometry x="188" y="213" width="25" height="25" as="geometry" />
        </mxCell>
        <mxCell id="XvheGI2hN2237C690OXO-30" style="edgeStyle=orthogonalEdgeStyle;rounded=0;orthogonalLoop=1;jettySize=auto;html=1;exitX=0.5;exitY=1;exitDx=0;exitDy=0;entryX=0.5;entryY=0;entryDx=0;entryDy=0;startArrow=classic;startFill=1;" edge="1" parent="1" source="XvheGI2hN2237C690OXO-4" target="XvheGI2hN2237C690OXO-17">
          <mxGeometry relative="1" as="geometry" />
        </mxCell>
        <mxCell id="XvheGI2hN2237C690OXO-4" value="D" style="whiteSpace=wrap;html=1;aspect=fixed;fillOpacity=60;strokeOpacity=100;" vertex="1" parent="1">
          <mxGeometry x="213" y="213" width="25" height="25" as="geometry" />
        </mxCell>
        <mxCell id="XvheGI2hN2237C690OXO-31" style="edgeStyle=orthogonalEdgeStyle;rounded=0;orthogonalLoop=1;jettySize=auto;html=1;exitX=0.5;exitY=1;exitDx=0;exitDy=0;entryX=0.5;entryY=0;entryDx=0;entryDy=0;startArrow=classic;startFill=1;" edge="1" parent="1" source="XvheGI2hN2237C690OXO-5" target="XvheGI2hN2237C690OXO-18">
          <mxGeometry relative="1" as="geometry" />
        </mxCell>
        <mxCell id="XvheGI2hN2237C690OXO-5" value="E" style="whiteSpace=wrap;html=1;aspect=fixed;fillColor=#67AB9F;fillOpacity=60;strokeOpacity=100;" vertex="1" parent="1">
          <mxGeometry x="238" y="213" width="25" height="25" as="geometry" />
        </mxCell>
        <mxCell id="XvheGI2hN2237C690OXO-32" style="edgeStyle=orthogonalEdgeStyle;rounded=0;orthogonalLoop=1;jettySize=auto;html=1;exitX=0.5;exitY=1;exitDx=0;exitDy=0;entryX=0.5;entryY=0;entryDx=0;entryDy=0;startArrow=classic;startFill=1;" edge="1" parent="1" source="XvheGI2hN2237C690OXO-6" target="XvheGI2hN2237C690OXO-19">
          <mxGeometry relative="1" as="geometry" />
        </mxCell>
        <mxCell id="XvheGI2hN2237C690OXO-6" value="F" style="whiteSpace=wrap;html=1;aspect=fixed;fillOpacity=60;strokeOpacity=100;" vertex="1" parent="1">
          <mxGeometry x="263" y="213" width="25" height="25" as="geometry" />
        </mxCell>
        <mxCell id="XvheGI2hN2237C690OXO-33" style="edgeStyle=orthogonalEdgeStyle;rounded=0;orthogonalLoop=1;jettySize=auto;html=1;exitX=0.5;exitY=1;exitDx=0;exitDy=0;entryX=0.5;entryY=0;entryDx=0;entryDy=0;startArrow=classic;startFill=1;" edge="1" parent="1" source="XvheGI2hN2237C690OXO-7" target="XvheGI2hN2237C690OXO-20">
          <mxGeometry relative="1" as="geometry" />
        </mxCell>
        <mxCell id="XvheGI2hN2237C690OXO-7" value="G" style="whiteSpace=wrap;html=1;aspect=fixed;fillOpacity=60;strokeOpacity=100;" vertex="1" parent="1">
          <mxGeometry x="288" y="213" width="25" height="25" as="geometry" />
        </mxCell>
        <mxCell id="XvheGI2hN2237C690OXO-34" style="edgeStyle=orthogonalEdgeStyle;rounded=0;orthogonalLoop=1;jettySize=auto;html=1;exitX=0.5;exitY=1;exitDx=0;exitDy=0;entryX=0.5;entryY=0;entryDx=0;entryDy=0;startArrow=classic;startFill=1;" edge="1" parent="1" source="XvheGI2hN2237C690OXO-8" target="XvheGI2hN2237C690OXO-21">
          <mxGeometry relative="1" as="geometry" />
        </mxCell>
        <mxCell id="XvheGI2hN2237C690OXO-8" value="H" style="whiteSpace=wrap;html=1;aspect=fixed;fillColor=#A9C4EB;fillOpacity=60;strokeOpacity=100;" vertex="1" parent="1">
          <mxGeometry x="313" y="213" width="25" height="25" as="geometry" />
        </mxCell>
        <mxCell id="XvheGI2hN2237C690OXO-35" style="edgeStyle=orthogonalEdgeStyle;rounded=0;orthogonalLoop=1;jettySize=auto;html=1;exitX=0.5;exitY=1;exitDx=0;exitDy=0;entryX=0.5;entryY=0;entryDx=0;entryDy=0;startArrow=classic;startFill=1;" edge="1" parent="1" source="XvheGI2hN2237C690OXO-9" target="XvheGI2hN2237C690OXO-22">
          <mxGeometry relative="1" as="geometry" />
        </mxCell>
        <mxCell id="XvheGI2hN2237C690OXO-9" value="I" style="whiteSpace=wrap;html=1;aspect=fixed;fillOpacity=60;strokeOpacity=100;" vertex="1" parent="1">
          <mxGeometry x="338" y="213" width="25" height="25" as="geometry" />
        </mxCell>
        <mxCell id="XvheGI2hN2237C690OXO-36" style="edgeStyle=orthogonalEdgeStyle;rounded=0;orthogonalLoop=1;jettySize=auto;html=1;exitX=0.5;exitY=1;exitDx=0;exitDy=0;entryX=0.5;entryY=0;entryDx=0;entryDy=0;startArrow=classic;startFill=1;" edge="1" parent="1" source="XvheGI2hN2237C690OXO-10" target="XvheGI2hN2237C690OXO-23">
          <mxGeometry relative="1" as="geometry" />
        </mxCell>
        <mxCell id="XvheGI2hN2237C690OXO-10" value="J" style="whiteSpace=wrap;html=1;aspect=fixed;fillOpacity=60;strokeOpacity=100;" vertex="1" parent="1">
          <mxGeometry x="363" y="213" width="25" height="25" as="geometry" />
        </mxCell>
        <mxCell id="XvheGI2hN2237C690OXO-37" style="edgeStyle=orthogonalEdgeStyle;rounded=0;orthogonalLoop=1;jettySize=auto;html=1;exitX=0.5;exitY=1;exitDx=0;exitDy=0;entryX=0.5;entryY=0;entryDx=0;entryDy=0;startArrow=classic;startFill=1;" edge="1" parent="1" source="XvheGI2hN2237C690OXO-11" target="XvheGI2hN2237C690OXO-24">
          <mxGeometry relative="1" as="geometry" />
        </mxCell>
        <mxCell id="XvheGI2hN2237C690OXO-11" value="K" style="whiteSpace=wrap;html=1;aspect=fixed;fillOpacity=60;strokeOpacity=100;" vertex="1" parent="1">
          <mxGeometry x="388" y="213" width="25" height="25" as="geometry" />
        </mxCell>
        <mxCell id="XvheGI2hN2237C690OXO-38" style="edgeStyle=orthogonalEdgeStyle;rounded=0;orthogonalLoop=1;jettySize=auto;html=1;exitX=0.5;exitY=1;exitDx=0;exitDy=0;entryX=0.5;entryY=0;entryDx=0;entryDy=0;startArrow=classic;startFill=1;" edge="1" parent="1" source="XvheGI2hN2237C690OXO-12" target="XvheGI2hN2237C690OXO-25">
          <mxGeometry relative="1" as="geometry" />
        </mxCell>
        <mxCell id="XvheGI2hN2237C690OXO-12" value="L" style="whiteSpace=wrap;html=1;aspect=fixed;fillColor=#CDA2BE;fillOpacity=60;strokeOpacity=100;" vertex="1" parent="1">
          <mxGeometry x="413" y="213" width="25" height="25" as="geometry" />
        </mxCell>
        <mxCell id="XvheGI2hN2237C690OXO-39" style="edgeStyle=orthogonalEdgeStyle;rounded=0;orthogonalLoop=1;jettySize=auto;html=1;exitX=0.5;exitY=1;exitDx=0;exitDy=0;entryX=0.5;entryY=0;entryDx=0;entryDy=0;startArrow=classic;startFill=1;" edge="1" parent="1" source="XvheGI2hN2237C690OXO-13" target="XvheGI2hN2237C690OXO-26">
          <mxGeometry relative="1" as="geometry" />
        </mxCell>
        <mxCell id="XvheGI2hN2237C690OXO-13" value="M" style="whiteSpace=wrap;html=1;aspect=fixed;fillOpacity=60;strokeOpacity=100;" vertex="1" parent="1">
          <mxGeometry x="438" y="213" width="25" height="25" as="geometry" />
        </mxCell>
        <mxCell id="XvheGI2hN2237C690OXO-14" value="N" style="whiteSpace=wrap;html=1;aspect=fixed;fillOpacity=60;strokeOpacity=100;" vertex="1" parent="1">
          <mxGeometry x="138" y="268" width="25" height="25" as="geometry" />
        </mxCell>
        <mxCell id="XvheGI2hN2237C690OXO-15" value="O" style="whiteSpace=wrap;html=1;aspect=fixed;fillColor=#B9E0A5;fillOpacity=60;strokeOpacity=100;" vertex="1" parent="1">
          <mxGeometry x="163" y="268" width="25" height="25" as="geometry" />
        </mxCell>
        <mxCell id="XvheGI2hN2237C690OXO-16" value="P" style="whiteSpace=wrap;html=1;aspect=fixed;fillOpacity=60;strokeOpacity=100;" vertex="1" parent="1">
          <mxGeometry x="188" y="268" width="25" height="25" as="geometry" />
        </mxCell>
        <mxCell id="XvheGI2hN2237C690OXO-17" value="Q" style="whiteSpace=wrap;html=1;aspect=fixed;fillOpacity=60;strokeOpacity=100;" vertex="1" parent="1">
          <mxGeometry x="213" y="268" width="25" height="25" as="geometry" />
        </mxCell>
        <mxCell id="XvheGI2hN2237C690OXO-18" value="R" style="whiteSpace=wrap;html=1;aspect=fixed;fillColor=#67AB9F;fillOpacity=60;strokeOpacity=100;" vertex="1" parent="1">
          <mxGeometry x="238" y="268" width="25" height="25" as="geometry" />
        </mxCell>
        <mxCell id="XvheGI2hN2237C690OXO-19" value="S" style="whiteSpace=wrap;html=1;aspect=fixed;fillOpacity=60;strokeOpacity=100;" vertex="1" parent="1">
          <mxGeometry x="263" y="268" width="25" height="25" as="geometry" />
        </mxCell>
        <mxCell id="XvheGI2hN2237C690OXO-20" value="T" style="whiteSpace=wrap;html=1;aspect=fixed;fillOpacity=60;strokeOpacity=100;" vertex="1" parent="1">
          <mxGeometry x="288" y="268" width="25" height="25" as="geometry" />
        </mxCell>
        <mxCell id="XvheGI2hN2237C690OXO-21" value="U" style="whiteSpace=wrap;html=1;aspect=fixed;fillColor=#A9C4EB;fillOpacity=60;strokeOpacity=100;" vertex="1" parent="1">
          <mxGeometry x="313" y="268" width="25" height="25" as="geometry" />
        </mxCell>
        <mxCell id="XvheGI2hN2237C690OXO-22" value="V" style="whiteSpace=wrap;html=1;aspect=fixed;fillOpacity=60;strokeOpacity=100;" vertex="1" parent="1">
          <mxGeometry x="338" y="268" width="25" height="25" as="geometry" />
        </mxCell>
        <mxCell id="XvheGI2hN2237C690OXO-23" value="W" style="whiteSpace=wrap;html=1;aspect=fixed;fillOpacity=60;strokeOpacity=100;" vertex="1" parent="1">
          <mxGeometry x="363" y="268" width="25" height="25" as="geometry" />
        </mxCell>
        <mxCell id="XvheGI2hN2237C690OXO-24" value="X" style="whiteSpace=wrap;html=1;aspect=fixed;fillOpacity=60;strokeOpacity=100;" vertex="1" parent="1">
          <mxGeometry x="388" y="268" width="25" height="25" as="geometry" />
        </mxCell>
        <mxCell id="XvheGI2hN2237C690OXO-25" value="Y" style="whiteSpace=wrap;html=1;aspect=fixed;fillColor=#CDA2BE;fillOpacity=60;strokeOpacity=100;" vertex="1" parent="1">
          <mxGeometry x="413" y="268" width="25" height="25" as="geometry" />
        </mxCell>
        <mxCell id="XvheGI2hN2237C690OXO-26" value="Z" style="whiteSpace=wrap;html=1;aspect=fixed;fillOpacity=60;strokeOpacity=100;" vertex="1" parent="1">
          <mxGeometry x="438" y="268" width="25" height="25" as="geometry" />
        </mxCell>
        <mxCell id="XvheGI2hN2237C690OXO-40" style="edgeStyle=orthogonalEdgeStyle;rounded=0;orthogonalLoop=1;jettySize=auto;html=1;exitX=0.5;exitY=1;exitDx=0;exitDy=0;entryX=0.5;entryY=0;entryDx=0;entryDy=0;startArrow=classic;startFill=1;" edge="1" parent="1" source="XvheGI2hN2237C690OXO-41" target="XvheGI2hN2237C690OXO-50">
          <mxGeometry relative="1" as="geometry" />
        </mxCell>
        <mxCell id="XvheGI2hN2237C690OXO-41" value="H" style="whiteSpace=wrap;html=1;aspect=fixed;fillColor=#A9C4EB;fillOpacity=60;strokeOpacity=100;" vertex="1" parent="1">
          <mxGeometry x="238" y="308" width="25" height="25" as="geometry" />
        </mxCell>
        <mxCell id="XvheGI2hN2237C690OXO-42" style="edgeStyle=orthogonalEdgeStyle;rounded=0;orthogonalLoop=1;jettySize=auto;html=1;exitX=0.5;exitY=1;exitDx=0;exitDy=0;entryX=0.5;entryY=0;entryDx=0;entryDy=0;startArrow=classic;startFill=1;" edge="1" parent="1" source="XvheGI2hN2237C690OXO-43" target="XvheGI2hN2237C690OXO-51">
          <mxGeometry relative="1" as="geometry" />
        </mxCell>
        <mxCell id="XvheGI2hN2237C690OXO-43" value="E" style="whiteSpace=wrap;html=1;aspect=fixed;fillColor=#67AB9F;fillOpacity=60;strokeOpacity=100;" vertex="1" parent="1">
          <mxGeometry x="263" y="308" width="25" height="25" as="geometry" />
        </mxCell>
        <mxCell id="XvheGI2hN2237C690OXO-44" style="edgeStyle=orthogonalEdgeStyle;rounded=0;orthogonalLoop=1;jettySize=auto;html=1;exitX=0.5;exitY=1;exitDx=0;exitDy=0;entryX=0.5;entryY=0;entryDx=0;entryDy=0;startArrow=classic;startFill=1;" edge="1" parent="1" source="XvheGI2hN2237C690OXO-45" target="XvheGI2hN2237C690OXO-52">
          <mxGeometry relative="1" as="geometry" />
        </mxCell>
        <mxCell id="XvheGI2hN2237C690OXO-45" value="L" style="whiteSpace=wrap;html=1;aspect=fixed;fillColor=#CDA2BE;fillOpacity=60;strokeOpacity=100;" vertex="1" parent="1">
          <mxGeometry x="288" y="308" width="25" height="25" as="geometry" />
        </mxCell>
        <mxCell id="XvheGI2hN2237C690OXO-46" style="edgeStyle=orthogonalEdgeStyle;rounded=0;orthogonalLoop=1;jettySize=auto;html=1;exitX=0.5;exitY=1;exitDx=0;exitDy=0;entryX=0.5;entryY=0;entryDx=0;entryDy=0;startArrow=classic;startFill=1;" edge="1" parent="1" source="XvheGI2hN2237C690OXO-47" target="XvheGI2hN2237C690OXO-53">
          <mxGeometry relative="1" as="geometry" />
        </mxCell>
        <mxCell id="XvheGI2hN2237C690OXO-47" value="L" style="whiteSpace=wrap;html=1;aspect=fixed;fillColor=#CDA2BE;fillOpacity=60;strokeOpacity=100;" vertex="1" parent="1">
          <mxGeometry x="313" y="308" width="25" height="25" as="geometry" />
        </mxCell>
        <mxCell id="XvheGI2hN2237C690OXO-48" style="edgeStyle=orthogonalEdgeStyle;rounded=0;orthogonalLoop=1;jettySize=auto;html=1;exitX=0.5;exitY=1;exitDx=0;exitDy=0;entryX=0.5;entryY=0;entryDx=0;entryDy=0;startArrow=classic;startFill=1;" edge="1" parent="1" source="XvheGI2hN2237C690OXO-49" target="XvheGI2hN2237C690OXO-54">
          <mxGeometry relative="1" as="geometry" />
        </mxCell>
        <mxCell id="XvheGI2hN2237C690OXO-49" value="O" style="whiteSpace=wrap;html=1;aspect=fixed;fillColor=#B9E0A5;fillOpacity=60;strokeOpacity=100;" vertex="1" parent="1">
          <mxGeometry x="338" y="308" width="25" height="25" as="geometry" />
        </mxCell>
        <mxCell id="XvheGI2hN2237C690OXO-50" value="U" style="whiteSpace=wrap;html=1;aspect=fixed;fillColor=#A9C4EB;fillOpacity=60;strokeOpacity=100;" vertex="1" parent="1">
          <mxGeometry x="238" y="363" width="25" height="25" as="geometry" />
        </mxCell>
        <mxCell id="XvheGI2hN2237C690OXO-51" value="R" style="whiteSpace=wrap;html=1;aspect=fixed;fillColor=#67AB9F;fillOpacity=60;strokeOpacity=100;" vertex="1" parent="1">
          <mxGeometry x="263" y="363" width="25" height="25" as="geometry" />
        </mxCell>
        <mxCell id="XvheGI2hN2237C690OXO-52" value="Y" style="whiteSpace=wrap;html=1;aspect=fixed;fillColor=#CDA2BE;fillOpacity=60;strokeOpacity=100;" vertex="1" parent="1">
          <mxGeometry x="288" y="363" width="25" height="25" as="geometry" />
        </mxCell>
        <mxCell id="XvheGI2hN2237C690OXO-53" value="Y" style="whiteSpace=wrap;html=1;aspect=fixed;fillColor=#CDA2BE;fillOpacity=60;strokeOpacity=100;" vertex="1" parent="1">
          <mxGeometry x="313" y="363" width="25" height="25" as="geometry" />
        </mxCell>
        <mxCell id="XvheGI2hN2237C690OXO-54" value="B" style="whiteSpace=wrap;html=1;aspect=fixed;fillColor=#B9E0A5;fillOpacity=60;strokeOpacity=100;" vertex="1" parent="1">
          <mxGeometry x="338" y="363" width="25" height="25" as="geometry" />
        </mxCell>
      </root>
    </mxGraphModel>
  </diagram>
</mxfile>
